<svg xmlns="http://www.w3.org/2000/svg" viewBox="0 0 100 125" xml:space="preserve"><path d="M80.509 44.482a.998.998 0 0 0-.788-.385H51.077a29.361 29.361 0 0 1 2.364-9.763c4.188-9.667 13.077-16.305 23.421-17.627-2.576 7.426-8.712 13.24-16.328 15.353a1 1 0 1 0 .535 1.927c8.753-2.428 15.703-9.37 18.151-18.123l.002-.007.014-.045c.016-.057.007-.113.012-.17.006-.059.026-.113.021-.174 0-.009-.006-.016-.007-.025-.007-.072-.035-.136-.058-.204-.019-.058-.029-.118-.057-.17-.025-.047-.065-.082-.098-.124-.046-.06-.087-.122-.145-.17-.037-.03-.085-.046-.126-.071-.07-.042-.137-.086-.216-.11-.009-.002-.014-.009-.023-.012-.056-.015-.11-.006-.166-.012-.06-.006-.116-.027-.179-.022-11.718.904-21.908 8.182-26.591 18.992-.265.61-.502 1.228-.727 1.849a31.315 31.315 0 0 0-2.484-9.893C43.71 14.683 33.521 7.406 21.803 6.503c-.073-.007-.14.015-.21.024-.045.006-.089-.003-.134.009-.006.001-.01.006-.016.008a.922.922 0 0 0-.236.12c-.037.022-.079.036-.112.063-.051.042-.086.099-.129.151-.04.048-.086.091-.116.146-.025.047-.033.101-.051.152-.025.073-.055.144-.063.222-.001.009-.007.016-.007.025-.005.061.016.116.021.174.005.057-.003.113.012.17l.014.045.002.007c2.449 8.753 9.399 15.694 18.152 18.122a1.002 1.002 0 0 0 1.231-.696 1.001 1.001 0 0 0-.697-1.231c-7.615-2.112-13.751-7.925-16.327-15.352C33.481 9.984 42.37 16.621 46.558 26.29A29.41 29.41 0 0 1 49 38.084v6.014H20.279a.998.998 0 0 0-.97 1.243l11.85 47.402a1 1 0 0 0 .97.758H67.87a1 1 0 0 0 .97-.758l11.85-47.402a1 1 0 0 0-.181-.859zM67.09 91.5H32.91L21.56 46.098H49v10.006a1 1 0 1 0 2 0v-9.975l.001-.031H78.44L67.09 91.5z"/><text y="115" font-size="5" font-weight="bold" font-family="'Helvetica Neue', Helvetica, Arial-Unicode, Arial, Sans-serif">Created by Oh Rian</text><text y="120" font-size="5" font-weight="bold" font-family="'Helvetica Neue', Helvetica, Arial-Unicode, Arial, Sans-serif">from the Noun Project</text></svg>