<svg width="148" height="26" fill="none" xmlns="http://www.w3.org/2000/svg"><path d="M0 .36h5.832C7.8.36 9.276.888 10.26 1.944s1.476 2.604 1.476 4.644v2.484c0 2.04-.492 3.588-1.476 4.644S7.8 15.3 5.832 15.3H3.96v10.26H0V.36ZM5.832 11.7c.648 0 1.128-.18 1.44-.54.336-.36.504-.972.504-1.836V6.336c0-.864-.168-1.476-.504-1.836-.312-.36-.792-.54-1.44-.54H3.96v7.74h1.872ZM25.19 25.92c-1.943 0-3.431-.552-4.463-1.656-1.032-1.104-1.548-2.664-1.548-4.68V6.336c0-2.016.516-3.576 1.548-4.68C21.759.552 23.247 0 25.19 0c1.944 0 3.432.552 4.464 1.656 1.032 1.104 1.548 2.664 1.548 4.68v13.248c0 2.016-.516 3.576-1.548 4.68-1.032 1.104-2.52 1.656-4.464 1.656Zm0-3.6c1.369 0 2.053-.828 2.053-2.484V6.084c0-1.656-.684-2.484-2.052-2.484-1.368 0-2.052.828-2.052 2.484v13.752c0 1.656.684 2.484 2.052 2.484ZM42.416 3.96h-4.14V.36h12.24v3.6h-4.14v21.6h-3.96V3.96ZM58.013.36h5.868c2.04 0 3.528.48 4.464 1.44.936.936 1.404 2.388 1.404 4.356v1.548c0 2.616-.864 4.272-2.592 4.968v.072c.96.288 1.632.876 2.016 1.764.408.888.612 2.076.612 3.564V22.5c0 .72.024 1.308.072 1.764.048.432.168.864.36 1.296h-4.032a5.772 5.772 0 0 1-.288-1.152c-.048-.36-.072-1.008-.072-1.944v-4.608c0-1.152-.192-1.956-.576-2.412-.36-.456-.996-.684-1.908-.684h-1.368v10.8h-3.96V.36Zm5.4 10.8c.792 0 1.38-.204 1.764-.612.408-.408.612-1.092.612-2.052V6.552c0-.912-.168-1.572-.504-1.98-.312-.408-.816-.612-1.512-.612h-1.8v7.2h1.44ZM78.113.36h5.832c1.968 0 3.444.528 4.428 1.584s1.476 2.604 1.476 4.644v2.484c0 2.04-.492 3.588-1.476 4.644s-2.46 1.584-4.428 1.584h-1.872v10.26h-3.96V.36Zm5.832 11.34c.648 0 1.128-.18 1.44-.54.336-.36.504-.972.504-1.836V6.336c0-.864-.168-1.476-.504-1.836-.312-.36-.792-.54-1.44-.54h-1.872v7.74h1.872ZM103.304 25.92c-1.944 0-3.432-.552-4.464-1.656-1.032-1.104-1.548-2.664-1.548-4.68V6.336c0-2.016.516-3.576 1.548-4.68C99.872.552 101.36 0 103.304 0c1.944 0 3.432.552 4.464 1.656 1.032 1.104 1.548 2.664 1.548 4.68v13.248c0 2.016-.516 3.576-1.548 4.68-1.032 1.104-2.52 1.656-4.464 1.656Zm0-3.6c1.368 0 2.052-.828 2.052-2.484V6.084c0-1.656-.684-2.484-2.052-2.484-1.368 0-2.052.828-2.052 2.484v13.752c0 1.656.684 2.484 2.052 2.484ZM120.529 3.96h-4.14V.36h12.24v3.6h-4.14v21.6h-3.96V3.96ZM141.274 25.92c-1.92 0-3.372-.54-4.356-1.62-.984-1.104-1.476-2.676-1.476-4.716v-1.44h3.744v1.728c0 1.632.684 2.448 2.052 2.448.672 0 1.176-.192 1.512-.576.36-.408.54-1.056.54-1.944 0-1.056-.24-1.98-.72-2.772-.48-.816-1.368-1.788-2.664-2.916-1.632-1.44-2.772-2.736-3.42-3.888-.648-1.176-.972-2.496-.972-3.96 0-1.992.504-3.528 1.512-4.608C138.034.552 139.498 0 141.418 0c1.896 0 3.324.552 4.284 1.656.984 1.08 1.476 2.64 1.476 4.68V7.38h-3.744V6.084c0-.864-.168-1.488-.504-1.872-.336-.408-.828-.612-1.476-.612-1.32 0-1.98.804-1.98 2.412 0 .912.24 1.764.72 2.556.504.792 1.404 1.752 2.7 2.88 1.656 1.44 2.796 2.748 3.42 3.924.624 1.176.936 2.556.936 4.14 0 2.064-.516 3.648-1.548 4.752-1.008 1.104-2.484 1.656-4.428 1.656Z" fill="#000"/></svg>